<mxfile modified="2020-08-13T22:14:43.156Z" host="app.diagrams.net" agent="5.0 (Macintosh; Intel Mac OS X 10_15_6) AppleWebKit/605.1.15 (KHTML, like Gecko) Version/13.1.2 Safari/605.1.15" etag="KIymsWPGD5GjS76Rjaut" version="13.6.2" type="github">
  <diagram id="Ht1M8jgEwFfnCIfOTk4-" name="Page-1">
    <mxGraphModel dx="1351" dy="946" grid="1" gridSize="10" guides="1" tooltips="1" connect="1" arrows="1" fold="1" page="1" pageScale="1" pageWidth="1169" pageHeight="827" background="none" math="0" shadow="0">
      <root>
        <mxCell id="0" />
        <mxCell id="1" parent="0" />
        <mxCell id="9gZsiQix6CurxSerb5Fo-36" value="" style="fontStyle=0;verticalAlign=top;align=center;spacingTop=-2;fillColor=none;rounded=0;whiteSpace=wrap;html=1;strokeColor=#FF0000;strokeWidth=2;dashed=1;container=0;collapsible=0;expand=0;recursiveResize=0;" parent="1" vertex="1">
          <mxGeometry x="29" y="180" width="1640" height="280" as="geometry" />
        </mxCell>
        <mxCell id="9gZsiQix6CurxSerb5Fo-71" value="&lt;br&gt;&lt;br&gt;&lt;br&gt;&lt;br&gt;&lt;br&gt;&lt;br&gt;&lt;br&gt;&lt;br&gt;&lt;br&gt;&lt;br&gt;&lt;br&gt;&lt;br&gt;&lt;br&gt;&lt;br&gt;&lt;br&gt;&lt;br&gt;&lt;br&gt;&lt;br&gt;&lt;br&gt;&lt;br&gt;&lt;br&gt;&lt;br&gt;&lt;br&gt;&lt;br&gt;&lt;br&gt;&lt;br&gt;&lt;br&gt;&lt;br&gt;&lt;br&gt;Cloud Services" style="fontStyle=0;verticalAlign=top;align=center;spacingTop=-2;fillColor=none;rounded=0;whiteSpace=wrap;html=1;strokeColor=#4376BB;strokeWidth=1;dashed=0;container=1;collapsible=0;expand=0;recursiveResize=0;direction=east;" parent="1" vertex="1">
          <mxGeometry x="846" y="320" width="100" height="440" as="geometry" />
        </mxCell>
        <mxCell id="9gZsiQix6CurxSerb5Fo-75" value="External Services" style="shape=mxgraph.ibm.box;prType=cloud;fontStyle=0;verticalAlign=top;align=left;spacingLeft=32;spacingTop=4;fillColor=none;rounded=0;whiteSpace=wrap;html=1;strokeColor=#4376BB;strokeWidth=3;dashed=0;container=1;spacing=-4;collapsible=0;expand=0;recursiveResize=0;" parent="1" vertex="1">
          <mxGeometry x="130" y="480" width="1160" height="290" as="geometry" />
        </mxCell>
        <mxCell id="9gZsiQix6CurxSerb5Fo-78" value="3th party&amp;nbsp;&lt;br&gt;&lt;br&gt;&lt;br&gt;&lt;br&gt;&lt;br&gt;&lt;br&gt;" style="html=1;dashed=0;whitespace=wrap;fillColor=#2875E2;strokeColor=#ffffff;points=[[0.005,0.63,0],[0.1,0.2,0],[0.9,0.2,0],[0.5,0,0],[0.995,0.63,0],[0.72,0.99,0],[0.5,1,0],[0.28,0.99,0]];shape=mxgraph.kubernetes.icon;prIcon=api;flipH=0;flipV=0;" parent="9gZsiQix6CurxSerb5Fo-75" vertex="1">
          <mxGeometry x="380" y="30" width="50" height="60" as="geometry" />
        </mxCell>
        <mxCell id="9gZsiQix6CurxSerb5Fo-79" value="eSitef&lt;br&gt;&lt;br&gt;&lt;br&gt;&lt;br&gt;&lt;br&gt;&lt;br&gt;" style="html=1;dashed=0;whitespace=wrap;fillColor=#2875E2;strokeColor=#ffffff;points=[[0.005,0.63,0],[0.1,0.2,0],[0.9,0.2,0],[0.5,0,0],[0.995,0.63,0],[0.72,0.99,0],[0.5,1,0],[0.28,0.99,0]];shape=mxgraph.kubernetes.icon;prIcon=api;flipH=0;flipV=0;" parent="9gZsiQix6CurxSerb5Fo-75" vertex="1">
          <mxGeometry x="740" y="30" width="50" height="60" as="geometry" />
        </mxCell>
        <mxCell id="9gZsiQix6CurxSerb5Fo-81" value="AME&lt;br&gt;&lt;br&gt;&lt;br&gt;&lt;br&gt;&lt;br&gt;&lt;br&gt;" style="html=1;dashed=0;whitespace=wrap;fillColor=#2875E2;strokeColor=#ffffff;points=[[0.005,0.63,0],[0.1,0.2,0],[0.9,0.2,0],[0.5,0,0],[0.995,0.63,0],[0.72,0.99,0],[0.5,1,0],[0.28,0.99,0]];shape=mxgraph.kubernetes.icon;prIcon=api;flipH=0;flipV=0;" parent="9gZsiQix6CurxSerb5Fo-75" vertex="1">
          <mxGeometry x="740" y="110" width="50" height="60" as="geometry" />
        </mxCell>
        <mxCell id="9gZsiQix6CurxSerb5Fo-82" value="CRM&lt;br&gt;&lt;br&gt;&lt;br&gt;&lt;br&gt;&lt;br&gt;&lt;br&gt;" style="html=1;dashed=0;whitespace=wrap;fillColor=#2875E2;strokeColor=#ffffff;points=[[0.005,0.63,0],[0.1,0.2,0],[0.9,0.2,0],[0.5,0,0],[0.995,0.63,0],[0.72,0.99,0],[0.5,1,0],[0.28,0.99,0]];shape=mxgraph.kubernetes.icon;prIcon=api;flipH=0;flipV=0;" parent="9gZsiQix6CurxSerb5Fo-75" vertex="1">
          <mxGeometry x="740" y="190" width="50" height="60" as="geometry" />
        </mxCell>
        <mxCell id="9gZsiQix6CurxSerb5Fo-83" value="Firebase&lt;br&gt;&lt;br&gt;&lt;br&gt;&lt;br&gt;&lt;br&gt;&lt;br&gt;" style="html=1;dashed=0;whitespace=wrap;fillColor=#2875E2;strokeColor=#ffffff;points=[[0.005,0.63,0],[0.1,0.2,0],[0.9,0.2,0],[0.5,0,0],[0.995,0.63,0],[0.72,0.99,0],[0.5,1,0],[0.28,0.99,0]];shape=mxgraph.kubernetes.icon;prIcon=api;flipH=0;flipV=0;" parent="9gZsiQix6CurxSerb5Fo-75" vertex="1">
          <mxGeometry x="860" y="30" width="50" height="60" as="geometry" />
        </mxCell>
        <mxCell id="9gZsiQix6CurxSerb5Fo-84" value="3th party&amp;nbsp;&lt;br&gt;&lt;br&gt;&lt;br&gt;&lt;br&gt;&lt;br&gt;&lt;br&gt;" style="html=1;dashed=0;whitespace=wrap;fillColor=#2875E2;strokeColor=#ffffff;points=[[0.005,0.63,0],[0.1,0.2,0],[0.9,0.2,0],[0.5,0,0],[0.995,0.63,0],[0.72,0.99,0],[0.5,1,0],[0.28,0.99,0]];shape=mxgraph.kubernetes.icon;prIcon=api;flipH=0;flipV=0;" parent="9gZsiQix6CurxSerb5Fo-75" vertex="1">
          <mxGeometry x="980" y="30" width="50" height="60" as="geometry" />
        </mxCell>
        <mxCell id="e6rWz-Rmy9RiweGdKCaX-19" value="Schema" style="fontStyle=0;verticalAlign=top;align=center;spacingTop=-1;fillColor=none;rounded=0;whiteSpace=wrap;strokeColor=#FF0000;strokeWidth=2;dashed=1;container=1;collapsible=0;expand=0;recursiveResize=0;spacing=1;" vertex="1" parent="1">
          <mxGeometry x="1320" y="190" width="86" height="239.5" as="geometry" />
        </mxCell>
        <mxCell id="e6rWz-Rmy9RiweGdKCaX-20" value="" style="aspect=fixed;html=1;points=[];align=center;image;fontSize=12;image=img/lib/mscae/Azure_Database_for_PostgreSQL_servers.svg;" vertex="1" parent="e6rWz-Rmy9RiweGdKCaX-19">
          <mxGeometry x="25.799999999999955" y="36.5" width="30.4" height="40" as="geometry" />
        </mxCell>
        <mxCell id="e6rWz-Rmy9RiweGdKCaX-32" value="RDS" style="shape=mxgraph.ibm.box;prType=classic;fontStyle=0;verticalAlign=top;align=left;spacingLeft=32;spacingTop=4;fillColor=none;rounded=0;whiteSpace=wrap;html=1;strokeColor=#4376BB;strokeWidth=2;dashed=0;container=1;spacing=-4;collapsible=0;expand=0;recursiveResize=0;" vertex="1" parent="e6rWz-Rmy9RiweGdKCaX-19">
          <mxGeometry x="-1270" y="-4" width="1390" height="84" as="geometry" />
        </mxCell>
        <mxCell id="9gZsiQix6CurxSerb5Fo-73" value="&lt;br&gt;&lt;br&gt;&lt;br&gt;&lt;br&gt;&lt;br&gt;&lt;br&gt;&lt;br&gt;&lt;br&gt;&lt;br&gt;&lt;br&gt;&lt;br&gt;&lt;br&gt;&lt;br&gt;&lt;br&gt;&lt;br&gt;&lt;br&gt;&lt;br&gt;&lt;br&gt;&lt;br&gt;&lt;br&gt;&lt;br&gt;&lt;br&gt;&lt;br&gt;&lt;br&gt;&lt;br&gt;&lt;br&gt;&lt;br&gt;&lt;br&gt;&lt;br&gt;Cloud Services" style="fontStyle=0;verticalAlign=top;align=center;spacingTop=-2;fillColor=none;rounded=0;whiteSpace=wrap;html=1;strokeColor=#4376BB;strokeWidth=1;dashed=0;container=1;collapsible=0;expand=0;recursiveResize=0;direction=east;flipH=0;" parent="1" vertex="1">
          <mxGeometry x="1094" y="320" width="80" height="440" as="geometry" />
        </mxCell>
        <mxCell id="9gZsiQix6CurxSerb5Fo-72" value="&lt;br&gt;&lt;br&gt;&lt;br&gt;&lt;br&gt;&lt;br&gt;&lt;br&gt;&lt;br&gt;&lt;br&gt;&lt;br&gt;&lt;br&gt;&lt;br&gt;&lt;br&gt;&lt;br&gt;&lt;br&gt;&lt;br&gt;&lt;br&gt;&lt;br&gt;&lt;br&gt;&lt;br&gt;&lt;br&gt;&lt;br&gt;&lt;br&gt;&lt;br&gt;&lt;br&gt;&lt;br&gt;&lt;br&gt;&lt;br&gt;&lt;br&gt;&lt;br&gt;Cloud Services" style="fontStyle=0;verticalAlign=top;align=center;spacingTop=-2;fillColor=none;rounded=0;whiteSpace=wrap;html=1;strokeColor=#4376BB;strokeWidth=1;dashed=0;container=1;collapsible=0;expand=0;recursiveResize=0;direction=east;" parent="1" vertex="1">
          <mxGeometry x="965" y="320" width="105" height="440" as="geometry" />
        </mxCell>
        <mxCell id="9gZsiQix6CurxSerb5Fo-74" value="&lt;br&gt;&lt;br&gt;&lt;br&gt;&lt;br&gt;&lt;br&gt;&lt;br&gt;&lt;br&gt;&lt;br&gt;&lt;br&gt;&lt;br&gt;&lt;br&gt;&lt;br&gt;&lt;br&gt;&lt;br&gt;&lt;br&gt;&lt;br&gt;&lt;br&gt;&lt;br&gt;&lt;br&gt;&lt;br&gt;&lt;br&gt;&lt;br&gt;&lt;br&gt;&lt;br&gt;&lt;br&gt;&lt;br&gt;&lt;br&gt;&lt;br&gt;&lt;br&gt;Cloud Services" style="fontStyle=0;verticalAlign=top;align=center;spacingTop=-2;fillColor=none;rounded=0;whiteSpace=wrap;html=1;strokeColor=#4376BB;strokeWidth=1;dashed=0;container=1;collapsible=0;expand=0;recursiveResize=0;direction=east;" parent="1" vertex="1">
          <mxGeometry x="490" y="320" width="90" height="440" as="geometry" />
        </mxCell>
        <mxCell id="9gZsiQix6CurxSerb5Fo-70" value="&lt;br&gt;&lt;br&gt;&lt;br&gt;&lt;br&gt;&lt;br&gt;&lt;br&gt;&lt;br&gt;&lt;br&gt;&lt;br&gt;&lt;br&gt;&lt;br&gt;&lt;br&gt;&lt;br&gt;&lt;br&gt;&lt;br&gt;&lt;br&gt;&lt;br&gt;&lt;br&gt;&lt;br&gt;&lt;br&gt;&lt;br&gt;&lt;br&gt;&lt;br&gt;&lt;br&gt;&lt;br&gt;&lt;br&gt;&lt;br&gt;&lt;br&gt;&lt;br&gt;Cloud Services" style="fontStyle=0;verticalAlign=top;align=center;spacingTop=-2;fillColor=none;rounded=0;whiteSpace=wrap;html=1;strokeColor=#4376BB;strokeWidth=1;dashed=0;container=1;collapsible=0;expand=0;recursiveResize=0;direction=east;" parent="1" vertex="1">
          <mxGeometry x="595" y="320" width="100" height="440" as="geometry" />
        </mxCell>
        <mxCell id="9gZsiQix6CurxSerb5Fo-76" value="CEP Aberto&lt;br&gt;&lt;br&gt;&lt;br&gt;&lt;br&gt;&lt;br&gt;&lt;br&gt;" style="html=1;dashed=0;whitespace=wrap;fillColor=#2875E2;strokeColor=#ffffff;points=[[0.005,0.63,0],[0.1,0.2,0],[0.9,0.2,0],[0.5,0,0],[0.995,0.63,0],[0.72,0.99,0],[0.5,1,0],[0.28,0.99,0]];shape=mxgraph.kubernetes.icon;prIcon=api;flipH=0;flipV=0;" parent="9gZsiQix6CurxSerb5Fo-70" vertex="1">
          <mxGeometry x="25" y="190" width="50" height="60" as="geometry" />
        </mxCell>
        <mxCell id="9gZsiQix6CurxSerb5Fo-77" value="Geocoding&lt;br&gt;&lt;br&gt;&lt;br&gt;&lt;br&gt;&lt;br&gt;&lt;br&gt;" style="html=1;dashed=0;whitespace=wrap;fillColor=#2875E2;strokeColor=#ffffff;points=[[0.005,0.63,0],[0.1,0.2,0],[0.9,0.2,0],[0.5,0,0],[0.995,0.63,0],[0.72,0.99,0],[0.5,1,0],[0.28,0.99,0]];shape=mxgraph.kubernetes.icon;prIcon=api;flipH=0;flipV=0;" parent="9gZsiQix6CurxSerb5Fo-70" vertex="1">
          <mxGeometry x="25" y="280" width="50" height="60" as="geometry" />
        </mxCell>
        <mxCell id="9gZsiQix6CurxSerb5Fo-59" value="Schema" style="fontStyle=0;verticalAlign=top;align=center;spacingTop=-2;fillColor=none;rounded=0;whiteSpace=wrap;html=1;strokeColor=#FF0000;strokeWidth=2;dashed=1;container=1;collapsible=0;expand=0;recursiveResize=0;" parent="1" vertex="1">
          <mxGeometry x="1214" y="187.5" width="86" height="240" as="geometry" />
        </mxCell>
        <mxCell id="9gZsiQix6CurxSerb5Fo-127" value="" style="aspect=fixed;html=1;points=[];align=center;image;fontSize=12;image=img/lib/mscae/Azure_Database_for_PostgreSQL_servers.svg;" parent="9gZsiQix6CurxSerb5Fo-59" vertex="1">
          <mxGeometry x="25.799999999999955" y="36.5" width="30.4" height="40" as="geometry" />
        </mxCell>
        <mxCell id="9gZsiQix6CurxSerb5Fo-58" value="Schema" style="fontStyle=0;verticalAlign=top;align=center;spacingTop=-2;fillColor=none;rounded=0;whiteSpace=wrap;html=1;strokeColor=#FF0000;strokeWidth=2;dashed=1;container=1;collapsible=0;expand=0;recursiveResize=0;" parent="1" vertex="1">
          <mxGeometry x="1090" y="187.5" width="90" height="240" as="geometry" />
        </mxCell>
        <mxCell id="9gZsiQix6CurxSerb5Fo-126" value="" style="aspect=fixed;html=1;points=[];align=center;image;fontSize=12;image=img/lib/mscae/Azure_Database_for_PostgreSQL_servers.svg;" parent="9gZsiQix6CurxSerb5Fo-58" vertex="1">
          <mxGeometry x="34.8" y="36.5" width="30.4" height="40" as="geometry" />
        </mxCell>
        <mxCell id="9gZsiQix6CurxSerb5Fo-57" value="Schema" style="fontStyle=0;verticalAlign=top;align=center;spacingTop=-2;fillColor=none;rounded=0;whiteSpace=wrap;html=1;strokeColor=#FF0000;strokeWidth=2;dashed=1;container=1;collapsible=0;expand=0;recursiveResize=0;" parent="1" vertex="1">
          <mxGeometry x="960" y="187.5" width="110" height="240" as="geometry" />
        </mxCell>
        <mxCell id="9gZsiQix6CurxSerb5Fo-125" value="" style="aspect=fixed;html=1;points=[];align=center;image;fontSize=12;image=img/lib/mscae/Azure_Database_for_PostgreSQL_servers.svg;" parent="9gZsiQix6CurxSerb5Fo-57" vertex="1">
          <mxGeometry x="39.799999999999955" y="34" width="30.4" height="40" as="geometry" />
        </mxCell>
        <mxCell id="9gZsiQix6CurxSerb5Fo-56" value="Schema" style="fontStyle=0;verticalAlign=top;align=center;spacingTop=-2;fillColor=none;rounded=0;whiteSpace=wrap;html=1;strokeColor=#FF0000;strokeWidth=2;dashed=1;container=1;collapsible=0;expand=0;recursiveResize=0;" parent="1" vertex="1">
          <mxGeometry x="840" y="187.5" width="110" height="240" as="geometry" />
        </mxCell>
        <mxCell id="9gZsiQix6CurxSerb5Fo-124" value="" style="aspect=fixed;html=1;points=[];align=center;image;fontSize=12;image=img/lib/mscae/Azure_Database_for_PostgreSQL_servers.svg;" parent="9gZsiQix6CurxSerb5Fo-56" vertex="1">
          <mxGeometry x="39.799999999999955" y="34" width="30.4" height="40" as="geometry" />
        </mxCell>
        <mxCell id="9gZsiQix6CurxSerb5Fo-55" value="Schema" style="fontStyle=0;verticalAlign=top;align=center;spacingTop=-2;fillColor=none;rounded=0;whiteSpace=wrap;html=1;strokeColor=#FF0000;strokeWidth=2;dashed=1;container=1;collapsible=0;expand=0;recursiveResize=0;" parent="1" vertex="1">
          <mxGeometry x="720" y="187.5" width="110" height="240" as="geometry" />
        </mxCell>
        <mxCell id="9gZsiQix6CurxSerb5Fo-123" value="" style="aspect=fixed;html=1;points=[];align=center;image;fontSize=12;image=img/lib/mscae/Azure_Database_for_PostgreSQL_servers.svg;" parent="9gZsiQix6CurxSerb5Fo-55" vertex="1">
          <mxGeometry x="39.799999999999955" y="34" width="30.4" height="40" as="geometry" />
        </mxCell>
        <mxCell id="9gZsiQix6CurxSerb5Fo-54" value="Schema" style="fontStyle=0;verticalAlign=top;align=center;spacingTop=-2;fillColor=none;rounded=0;whiteSpace=wrap;html=1;strokeColor=#FF0000;strokeWidth=2;dashed=1;container=1;collapsible=0;expand=0;recursiveResize=0;" parent="1" vertex="1">
          <mxGeometry x="600" y="187.5" width="90" height="240" as="geometry" />
        </mxCell>
        <mxCell id="9gZsiQix6CurxSerb5Fo-122" value="" style="aspect=fixed;html=1;points=[];align=center;image;fontSize=12;image=img/lib/mscae/Azure_Database_for_PostgreSQL_servers.svg;" parent="9gZsiQix6CurxSerb5Fo-54" vertex="1">
          <mxGeometry x="29.799999999999955" y="34" width="30.4" height="40" as="geometry" />
        </mxCell>
        <mxCell id="9gZsiQix6CurxSerb5Fo-53" value="Schema" style="fontStyle=0;verticalAlign=top;align=center;spacingTop=-2;fillColor=none;rounded=0;whiteSpace=wrap;html=1;strokeColor=#FF0000;strokeWidth=2;dashed=1;container=1;collapsible=0;expand=0;recursiveResize=0;" parent="1" vertex="1">
          <mxGeometry x="490" y="187.5" width="93" height="240" as="geometry" />
        </mxCell>
        <mxCell id="9gZsiQix6CurxSerb5Fo-121" value="" style="aspect=fixed;html=1;points=[];align=center;image;fontSize=12;image=img/lib/mscae/Azure_Database_for_PostgreSQL_servers.svg;" parent="9gZsiQix6CurxSerb5Fo-53" vertex="1">
          <mxGeometry x="31.999999999999943" y="34" width="30.4" height="40" as="geometry" />
        </mxCell>
        <mxCell id="9gZsiQix6CurxSerb5Fo-52" value="Schema" style="fontStyle=0;verticalAlign=top;align=center;spacingTop=-2;fillColor=none;rounded=0;whiteSpace=wrap;html=1;strokeColor=#FF0000;strokeWidth=2;dashed=1;container=1;collapsible=0;expand=0;recursiveResize=0;" parent="1" vertex="1">
          <mxGeometry x="370" y="187.5" width="90" height="240" as="geometry" />
        </mxCell>
        <mxCell id="9gZsiQix6CurxSerb5Fo-115" value="Elasticsearch" style="outlineConnect=0;dashed=0;verticalLabelPosition=bottom;verticalAlign=top;align=center;html=1;shape=mxgraph.aws3.elasticsearch_service;fillColor=#F58534;gradientColor=none;" parent="9gZsiQix6CurxSerb5Fo-52" vertex="1">
          <mxGeometry x="24.99" y="96.75" width="35.21" height="46.5" as="geometry" />
        </mxCell>
        <mxCell id="9gZsiQix6CurxSerb5Fo-120" value="" style="aspect=fixed;html=1;points=[];align=center;image;fontSize=12;image=img/lib/mscae/Azure_Database_for_PostgreSQL_servers.svg;" parent="9gZsiQix6CurxSerb5Fo-52" vertex="1">
          <mxGeometry x="29.79999999999996" y="34" width="30.4" height="40" as="geometry" />
        </mxCell>
        <mxCell id="9gZsiQix6CurxSerb5Fo-51" value="Schema" style="fontStyle=0;verticalAlign=top;align=center;spacingTop=-2;fillColor=none;rounded=0;whiteSpace=wrap;html=1;strokeColor=#FF0000;strokeWidth=2;dashed=1;container=1;collapsible=0;expand=0;recursiveResize=0;" parent="1" vertex="1">
          <mxGeometry x="250" y="187.5" width="90" height="240" as="geometry" />
        </mxCell>
        <mxCell id="-QjtrjUzRDEMRZ5MF8oH-47" value="Visual Mix Easy APIs Composition" style="text;html=1;resizable=0;points=[];autosize=1;align=left;verticalAlign=top;spacingTop=-4;fontSize=30;fontStyle=1" parent="1" vertex="1">
          <mxGeometry x="12" y="65.5" width="510" height="40" as="geometry" />
        </mxCell>
        <mxCell id="-QjtrjUzRDEMRZ5MF8oH-48" value="Visual Mix - Easy" style="text;html=1;resizable=0;points=[];autosize=1;align=left;verticalAlign=top;spacingTop=-4;fontSize=16" parent="1" vertex="1">
          <mxGeometry x="12" y="115.5" width="140" height="20" as="geometry" />
        </mxCell>
        <mxCell id="SCVMTBWpLvtzJIhz15lM-1" value="" style="line;strokeWidth=2;html=1;fontSize=14;" parent="1" vertex="1">
          <mxGeometry x="8" y="140.5" width="1060" height="10" as="geometry" />
        </mxCell>
        <mxCell id="J2uJuzHB50UTJ_rWJ9Sv-41" value="External access" style="shape=mxgraph.ibm.box;prType=public;fontStyle=0;verticalAlign=top;align=left;spacingLeft=32;spacingTop=4;fillColor=none;rounded=0;whiteSpace=wrap;html=1;strokeColor=#4376BB;strokeWidth=3;dashed=0;container=1;spacing=-4;collapsible=0;expand=0;recursiveResize=0;fontSize=14;" parent="1" vertex="1">
          <mxGeometry x="1997.5" y="230" width="140" height="290" as="geometry" />
        </mxCell>
        <mxCell id="e6rWz-Rmy9RiweGdKCaX-3" value="" style="outlineConnect=0;dashed=0;verticalLabelPosition=bottom;verticalAlign=top;align=center;html=1;shape=mxgraph.aws3.mobile_client;fillColor=#D2D3D3;gradientColor=none;" vertex="1" parent="J2uJuzHB50UTJ_rWJ9Sv-41">
          <mxGeometry x="49.75" y="74.5" width="40.5" height="63" as="geometry" />
        </mxCell>
        <mxCell id="9gZsiQix6CurxSerb5Fo-18" value="" style="rounded=0;whiteSpace=wrap;html=1;fillColor=#EAEDED;fontSize=22;fontColor=#FFFFFF;strokeColor=none;labelBackgroundColor=none;" parent="1" vertex="1">
          <mxGeometry x="2384" y="90" width="539" height="969" as="geometry" />
        </mxCell>
        <mxCell id="9gZsiQix6CurxSerb5Fo-19" value="1" style="rounded=1;whiteSpace=wrap;html=1;fillColor=#007CBD;strokeColor=none;fontColor=#FFFFFF;fontStyle=1;fontSize=22;labelBackgroundColor=none;" parent="1" vertex="1">
          <mxGeometry x="2402" y="102" width="40" height="38" as="geometry" />
        </mxCell>
        <mxCell id="9gZsiQix6CurxSerb5Fo-20" value="2" style="rounded=1;whiteSpace=wrap;html=1;fillColor=#007CBD;strokeColor=none;fontColor=#FFFFFF;fontStyle=1;fontSize=22;labelBackgroundColor=none;" parent="1" vertex="1">
          <mxGeometry x="2401.5" y="153.5" width="40" height="38" as="geometry" />
        </mxCell>
        <mxCell id="9gZsiQix6CurxSerb5Fo-21" value="3" style="rounded=1;whiteSpace=wrap;html=1;fillColor=#007CBD;strokeColor=none;fontColor=#FFFFFF;fontStyle=1;fontSize=22;labelBackgroundColor=none;" parent="1" vertex="1">
          <mxGeometry x="2401.5" y="216" width="40" height="38" as="geometry" />
        </mxCell>
        <mxCell id="9gZsiQix6CurxSerb5Fo-22" value="4" style="rounded=1;whiteSpace=wrap;html=1;fillColor=#007CBD;strokeColor=none;fontColor=#FFFFFF;fontStyle=1;fontSize=22;labelBackgroundColor=none;" parent="1" vertex="1">
          <mxGeometry x="2403" y="275" width="40" height="38" as="geometry" />
        </mxCell>
        <mxCell id="9gZsiQix6CurxSerb5Fo-23" value="5" style="rounded=1;whiteSpace=wrap;html=1;fillColor=#007CBD;strokeColor=none;fontColor=#FFFFFF;fontStyle=1;fontSize=22;labelBackgroundColor=none;" parent="1" vertex="1">
          <mxGeometry x="2402.5" y="331.5" width="40" height="38" as="geometry" />
        </mxCell>
        <mxCell id="9gZsiQix6CurxSerb5Fo-24" value="6" style="rounded=1;whiteSpace=wrap;html=1;fillColor=#007CBD;strokeColor=none;fontColor=#FFFFFF;fontStyle=1;fontSize=22;labelBackgroundColor=none;" parent="1" vertex="1">
          <mxGeometry x="2403" y="382.5" width="40" height="38" as="geometry" />
        </mxCell>
        <mxCell id="9gZsiQix6CurxSerb5Fo-25" value="7" style="rounded=1;whiteSpace=wrap;html=1;fillColor=#007CBD;strokeColor=none;fontColor=#FFFFFF;fontStyle=1;fontSize=22;labelBackgroundColor=none;" parent="1" vertex="1">
          <mxGeometry x="2402" y="433.75" width="40" height="38" as="geometry" />
        </mxCell>
        <mxCell id="9gZsiQix6CurxSerb5Fo-26" value="8" style="rounded=1;whiteSpace=wrap;html=1;fillColor=#007CBD;strokeColor=none;fontColor=#FFFFFF;fontStyle=1;fontSize=22;labelBackgroundColor=none;" parent="1" vertex="1">
          <mxGeometry x="2404" y="490" width="40" height="38" as="geometry" />
        </mxCell>
        <mxCell id="9gZsiQix6CurxSerb5Fo-27" value="&lt;b&gt;vm-auth-api &lt;/b&gt;- &amp;nbsp;Visual Mix API. It is responsible for authentication and user&#39;s management&amp;nbsp;" style="text;html=1;align=left;verticalAlign=top;spacingTop=-4;fontSize=14;labelBackgroundColor=none;whiteSpace=wrap;" parent="1" vertex="1">
          <mxGeometry x="2453.5" y="101.5" width="449" height="46.5" as="geometry" />
        </mxCell>
        <mxCell id="9gZsiQix6CurxSerb5Fo-28" value="&lt;b&gt;vm-presale-api&amp;nbsp;&lt;/b&gt;&lt;b&gt;-&amp;nbsp;&lt;/b&gt;Visual Mix API. It is responsible for manager all purchase cycle.&amp;nbsp;&lt;br&gt;Create new cart, add products, queries about carts, etc." style="text;html=1;align=left;verticalAlign=top;spacingTop=-4;fontSize=14;labelBackgroundColor=none;whiteSpace=wrap;" parent="1" vertex="1">
          <mxGeometry x="2453.5" y="154" width="450" height="43.5" as="geometry" />
        </mxCell>
        <mxCell id="9gZsiQix6CurxSerb5Fo-29" value="&lt;b&gt;vm-product-api&amp;nbsp;&lt;/b&gt;&lt;b&gt;-&amp;nbsp;&lt;/b&gt;Visual Mix API. It is responsible for searching product data Elasticsearch&amp;nbsp;" style="text;html=1;align=left;verticalAlign=top;spacingTop=-4;fontSize=14;labelBackgroundColor=none;whiteSpace=wrap;" parent="1" vertex="1">
          <mxGeometry x="2453.5" y="214.5" width="450" height="117" as="geometry" />
        </mxCell>
        <mxCell id="9gZsiQix6CurxSerb5Fo-30" value="&lt;span&gt;&lt;b&gt;vm-logistics-api&amp;nbsp;&lt;/b&gt;&lt;/span&gt;&lt;b&gt;-&amp;nbsp;&lt;/b&gt;Visual Mix API. It is responsible the stores&amp;nbsp;and delivery&amp;nbsp;information&amp;nbsp;" style="text;html=1;align=left;verticalAlign=top;spacingTop=-4;fontSize=14;labelBackgroundColor=none;whiteSpace=wrap;" parent="1" vertex="1">
          <mxGeometry x="2457" y="270.5" width="450" height="49.5" as="geometry" />
        </mxCell>
        <mxCell id="9gZsiQix6CurxSerb5Fo-31" value="&lt;b&gt;vm-location-api&amp;nbsp;&lt;/b&gt;&lt;b&gt;-&amp;nbsp;&lt;/b&gt;Visual Mix API. It is responsible for search address by our own database, ViaCEP API and Geocoding(Google) API." style="text;html=1;align=left;verticalAlign=top;spacingTop=-4;fontSize=14;labelBackgroundColor=none;whiteSpace=wrap;" parent="1" vertex="1">
          <mxGeometry x="2454.5" y="331.5" width="449" height="62.5" as="geometry" />
        </mxCell>
        <mxCell id="9gZsiQix6CurxSerb5Fo-32" value="&lt;b&gt;vm-configeasy-api&amp;nbsp;&lt;/b&gt;&lt;b&gt;-&amp;nbsp;&lt;/b&gt;&lt;b&gt;&amp;nbsp;&lt;/b&gt;Visual Mix API. It is responsible for all setups to easy app works perfectly. Theme color, images, sections, etc" style="text;html=1;align=left;verticalAlign=top;spacingTop=-4;fontSize=14;labelBackgroundColor=none;whiteSpace=wrap;" parent="1" vertex="1">
          <mxGeometry x="2453.5" y="384" width="450" height="36" as="geometry" />
        </mxCell>
        <mxCell id="9gZsiQix6CurxSerb5Fo-33" value="&lt;b&gt;vm-pushnotifier-api&amp;nbsp;&lt;/b&gt;&lt;b&gt;-&amp;nbsp;&lt;/b&gt;Visual Mix API. It the bridges between client(app) and Firebase." style="text;html=1;align=left;verticalAlign=top;spacingTop=-4;fontSize=14;labelBackgroundColor=none;whiteSpace=wrap;" parent="1" vertex="1">
          <mxGeometry x="2454.5" y="491.5" width="449" height="38.5" as="geometry" />
        </mxCell>
        <mxCell id="9gZsiQix6CurxSerb5Fo-34" value="&lt;b&gt;vm-epayment-api&amp;nbsp;&lt;/b&gt;&lt;b&gt;-&amp;nbsp;&lt;/b&gt;Visual Mix API. Gateway to external payments methods. eSiftef(Software Express), AME, etc.&lt;b&gt;&amp;nbsp;&lt;/b&gt;" style="text;html=1;align=left;verticalAlign=top;spacingTop=-4;fontSize=14;labelBackgroundColor=none;whiteSpace=wrap;" parent="1" vertex="1">
          <mxGeometry x="2452.5" y="431.5" width="450" height="38.5" as="geometry" />
        </mxCell>
        <mxCell id="9gZsiQix6CurxSerb5Fo-50" value="Schema" style="fontStyle=0;verticalAlign=top;align=center;spacingTop=-2;fillColor=none;rounded=0;whiteSpace=wrap;html=1;strokeColor=#FF0000;strokeWidth=2;dashed=1;container=1;collapsible=0;expand=0;recursiveResize=0;" parent="1" vertex="1">
          <mxGeometry x="140" y="189.5" width="70" height="240" as="geometry" />
        </mxCell>
        <mxCell id="9gZsiQix6CurxSerb5Fo-116" value="" style="aspect=fixed;html=1;points=[];align=center;image;fontSize=12;image=img/lib/mscae/Azure_Database_for_PostgreSQL_servers.svg;" parent="9gZsiQix6CurxSerb5Fo-50" vertex="1">
          <mxGeometry x="19.799999999999955" y="32" width="30.4" height="40" as="geometry" />
        </mxCell>
        <mxCell id="9gZsiQix6CurxSerb5Fo-38" value="vm-presale-api&lt;br&gt;&lt;br&gt;&lt;br&gt;&lt;br&gt;&lt;br&gt;&lt;br&gt;" style="html=1;dashed=0;whitespace=wrap;fillColor=#2875E2;strokeColor=#ffffff;points=[[0.005,0.63,0],[0.1,0.2,0],[0.9,0.2,0],[0.5,0,0],[0.995,0.63,0],[0.72,0.99,0],[0.5,1,0],[0.28,0.99,0]];shape=mxgraph.kubernetes.icon;prIcon=api;flipH=0;flipV=0;" parent="1" vertex="1">
          <mxGeometry x="270" y="369.5" width="50" height="60" as="geometry" />
        </mxCell>
        <mxCell id="9gZsiQix6CurxSerb5Fo-39" value="vm-products-api&lt;br&gt;&lt;br&gt;&lt;br&gt;&lt;br&gt;&lt;br&gt;&lt;br&gt;" style="html=1;dashed=0;whitespace=wrap;fillColor=#2875E2;strokeColor=#ffffff;points=[[0.005,0.63,0],[0.1,0.2,0],[0.9,0.2,0],[0.5,0,0],[0.995,0.63,0],[0.72,0.99,0],[0.5,1,0],[0.28,0.99,0]];shape=mxgraph.kubernetes.icon;prIcon=api;flipH=0;flipV=0;" parent="1" vertex="1">
          <mxGeometry x="390" y="369.5" width="50" height="60" as="geometry" />
        </mxCell>
        <mxCell id="9gZsiQix6CurxSerb5Fo-40" value="vm-logistics-api&lt;br&gt;&lt;br&gt;&lt;br&gt;&lt;br&gt;&lt;br&gt;&lt;br&gt;" style="html=1;dashed=0;whitespace=wrap;fillColor=#2875E2;strokeColor=#ffffff;points=[[0.005,0.63,0],[0.1,0.2,0],[0.9,0.2,0],[0.5,0,0],[0.995,0.63,0],[0.72,0.99,0],[0.5,1,0],[0.28,0.99,0]];shape=mxgraph.kubernetes.icon;prIcon=api;flipH=0;flipV=0;" parent="1" vertex="1">
          <mxGeometry x="510" y="369.5" width="50" height="60" as="geometry" />
        </mxCell>
        <mxCell id="9gZsiQix6CurxSerb5Fo-41" value="vm-location-api&lt;br&gt;&lt;br&gt;&lt;br&gt;&lt;br&gt;&lt;br&gt;&lt;br&gt;" style="html=1;dashed=0;whitespace=wrap;fillColor=#2875E2;strokeColor=#ffffff;points=[[0.005,0.63,0],[0.1,0.2,0],[0.9,0.2,0],[0.5,0,0],[0.995,0.63,0],[0.72,0.99,0],[0.5,1,0],[0.28,0.99,0]];shape=mxgraph.kubernetes.icon;prIcon=api;flipH=0;flipV=0;" parent="1" vertex="1">
          <mxGeometry x="620" y="369.5" width="50" height="60" as="geometry" />
        </mxCell>
        <mxCell id="9gZsiQix6CurxSerb5Fo-42" value="vm-configeasy-api&lt;br&gt;&lt;br&gt;&lt;br&gt;&lt;br&gt;&lt;br&gt;&lt;br&gt;" style="html=1;dashed=0;whitespace=wrap;fillColor=#2875E2;strokeColor=#ffffff;points=[[0.005,0.63,0],[0.1,0.2,0],[0.9,0.2,0],[0.5,0,0],[0.995,0.63,0],[0.72,0.99,0],[0.5,1,0],[0.28,0.99,0]];shape=mxgraph.kubernetes.icon;prIcon=api;flipH=0;flipV=0;" parent="1" vertex="1">
          <mxGeometry x="750" y="369.5" width="50" height="60" as="geometry" />
        </mxCell>
        <mxCell id="9gZsiQix6CurxSerb5Fo-43" value="vm-epayment-api&lt;br&gt;&lt;br&gt;&lt;br&gt;&lt;br&gt;&lt;br&gt;&lt;br&gt;" style="html=1;dashed=0;whitespace=wrap;fillColor=#2875E2;strokeColor=#ffffff;points=[[0.005,0.63,0],[0.1,0.2,0],[0.9,0.2,0],[0.5,0,0],[0.995,0.63,0],[0.72,0.99,0],[0.5,1,0],[0.28,0.99,0]];shape=mxgraph.kubernetes.icon;prIcon=api;flipH=0;flipV=0;" parent="1" vertex="1">
          <mxGeometry x="870" y="369.5" width="50" height="60" as="geometry" />
        </mxCell>
        <mxCell id="9gZsiQix6CurxSerb5Fo-44" value="vm-pushnotifier-api&lt;br&gt;&lt;br&gt;&lt;br&gt;&lt;br&gt;&lt;br&gt;&lt;br&gt;" style="html=1;dashed=0;whitespace=wrap;fillColor=#2875E2;strokeColor=#ffffff;points=[[0.005,0.63,0],[0.1,0.2,0],[0.9,0.2,0],[0.5,0,0],[0.995,0.63,0],[0.72,0.99,0],[0.5,1,0],[0.28,0.99,0]];shape=mxgraph.kubernetes.icon;prIcon=api;flipH=0;flipV=0;" parent="1" vertex="1">
          <mxGeometry x="990" y="369.5" width="50" height="60" as="geometry" />
        </mxCell>
        <mxCell id="9gZsiQix6CurxSerb5Fo-46" value="vm-chat-api&lt;br&gt;&lt;br&gt;&lt;br&gt;&lt;br&gt;&lt;br&gt;&lt;br&gt;" style="html=1;dashed=0;whitespace=wrap;fillColor=#2875E2;strokeColor=#ffffff;points=[[0.005,0.63,0],[0.1,0.2,0],[0.9,0.2,0],[0.5,0,0],[0.995,0.63,0],[0.72,0.99,0],[0.5,1,0],[0.28,0.99,0]];shape=mxgraph.kubernetes.icon;prIcon=api;flipH=0;flipV=0;" parent="1" vertex="1">
          <mxGeometry x="1230" y="369.5" width="50" height="60" as="geometry" />
        </mxCell>
        <mxCell id="9gZsiQix6CurxSerb5Fo-49" value="vm-stock-api&lt;br&gt;&lt;br&gt;&lt;br&gt;&lt;br&gt;&lt;br&gt;&lt;br&gt;" style="html=1;dashed=0;whitespace=wrap;fillColor=#2875E2;strokeColor=#ffffff;points=[[0.005,0.63,0],[0.1,0.2,0],[0.9,0.2,0],[0.5,0,0],[0.995,0.63,0],[0.72,0.99,0],[0.5,1,0],[0.28,0.99,0]];shape=mxgraph.kubernetes.icon;prIcon=api;flipH=0;flipV=0;" parent="1" vertex="1">
          <mxGeometry x="1110" y="369.5" width="50" height="60" as="geometry" />
        </mxCell>
        <mxCell id="9gZsiQix6CurxSerb5Fo-37" value="vm-auth-api&lt;br&gt;&lt;br&gt;&lt;br&gt;&lt;br&gt;&lt;br&gt;&lt;br&gt;" style="html=1;dashed=0;whitespace=wrap;fillColor=#2875E2;strokeColor=#ffffff;points=[[0.005,0.63,0],[0.1,0.2,0],[0.9,0.2,0],[0.5,0,0],[0.995,0.63,0],[0.72,0.99,0],[0.5,1,0],[0.28,0.99,0]];shape=mxgraph.kubernetes.icon;prIcon=api;flipH=0;flipV=0;" parent="1" vertex="1">
          <mxGeometry x="150" y="369.50000000000006" width="50" height="60" as="geometry" />
        </mxCell>
        <mxCell id="9gZsiQix6CurxSerb5Fo-119" value="" style="aspect=fixed;html=1;points=[];align=center;image;fontSize=12;image=img/lib/mscae/Azure_Database_for_PostgreSQL_servers.svg;" parent="1" vertex="1">
          <mxGeometry x="279.79999999999995" y="221.5" width="30.4" height="40" as="geometry" />
        </mxCell>
        <mxCell id="e6rWz-Rmy9RiweGdKCaX-2" value="Broker" style="aspect=fixed;perimeter=ellipsePerimeter;html=1;align=center;shadow=0;dashed=0;fontColor=#4277BB;labelBackgroundColor=#ffffff;fontSize=12;spacingTop=3;image;image=img/lib/ibm/applications/service_broker.svg;" vertex="1" parent="1">
          <mxGeometry x="1580" y="290" width="60" height="60" as="geometry" />
        </mxCell>
        <mxCell id="e6rWz-Rmy9RiweGdKCaX-6" value="" style="outlineConnect=0;dashed=0;verticalLabelPosition=bottom;verticalAlign=top;align=center;html=1;shape=mxgraph.aws3.cloud_2;fillColor=#F58534;gradientColor=none;" vertex="1" parent="1">
          <mxGeometry x="1870" y="315.25" width="44.75" height="44.75" as="geometry" />
        </mxCell>
        <mxCell id="e6rWz-Rmy9RiweGdKCaX-7" style="edgeStyle=orthogonalEdgeStyle;rounded=0;orthogonalLoop=1;jettySize=auto;html=1;exitX=0;exitY=0.5;exitDx=0;exitDy=0;exitPerimeter=0;" edge="1" parent="1" source="e6rWz-Rmy9RiweGdKCaX-3">
          <mxGeometry relative="1" as="geometry">
            <mxPoint x="1920" y="336" as="targetPoint" />
          </mxGeometry>
        </mxCell>
        <mxCell id="e6rWz-Rmy9RiweGdKCaX-9" value="Kubernetes" style="aspect=fixed;html=1;points=[];align=center;image;fontSize=12;image=img/lib/mscae/Kubernetes.svg;" vertex="1" parent="1">
          <mxGeometry x="1760" y="312" width="50" height="48" as="geometry" />
        </mxCell>
        <mxCell id="e6rWz-Rmy9RiweGdKCaX-10" value="" style="html=1;labelBackgroundColor=#ffffff;endArrow=classic;endFill=1;endSize=6;jettySize=auto;orthogonalLoop=1;strokeWidth=1;fontSize=14;" edge="1" parent="1" source="e6rWz-Rmy9RiweGdKCaX-6" target="e6rWz-Rmy9RiweGdKCaX-9">
          <mxGeometry width="60" height="60" relative="1" as="geometry">
            <mxPoint x="1730" y="390" as="sourcePoint" />
            <mxPoint x="1420" y="500" as="targetPoint" />
          </mxGeometry>
        </mxCell>
        <mxCell id="e6rWz-Rmy9RiweGdKCaX-11" value="" style="html=1;labelBackgroundColor=#ffffff;endArrow=none;endFill=0;jettySize=auto;orthogonalLoop=1;strokeWidth=1;dashed=1;fontSize=14;entryX=-0.073;entryY=0.59;entryDx=0;entryDy=0;entryPerimeter=0;" edge="1" parent="1" target="e6rWz-Rmy9RiweGdKCaX-9">
          <mxGeometry width="60" height="60" relative="1" as="geometry">
            <mxPoint x="1678" y="340" as="sourcePoint" />
            <mxPoint x="1420" y="500" as="targetPoint" />
          </mxGeometry>
        </mxCell>
        <mxCell id="e6rWz-Rmy9RiweGdKCaX-22" value="" style="fontStyle=0;verticalAlign=top;align=center;spacingTop=-2;fillColor=none;rounded=0;whiteSpace=wrap;html=1;strokeColor=#FF0000;strokeWidth=2;dashed=1;container=1;collapsible=0;expand=0;recursiveResize=0;" vertex="1" parent="1">
          <mxGeometry x="1420" y="340" width="120" height="91" as="geometry" />
        </mxCell>
        <mxCell id="e6rWz-Rmy9RiweGdKCaX-24" value="vm-messenger-ws&lt;br&gt;&lt;br&gt;&lt;br&gt;&lt;br&gt;&lt;br&gt;&lt;br&gt;" style="html=1;dashed=0;whitespace=wrap;fillColor=#2875E2;strokeColor=#ffffff;points=[[0.005,0.63,0],[0.1,0.2,0],[0.9,0.2,0],[0.5,0,0],[0.995,0.63,0],[0.72,0.99,0],[0.5,1,0],[0.28,0.99,0]];shape=mxgraph.kubernetes.icon;prIcon=api;flipH=0;flipV=0;" vertex="1" parent="e6rWz-Rmy9RiweGdKCaX-22">
          <mxGeometry x="35" y="29.5" width="50" height="60" as="geometry" />
        </mxCell>
        <mxCell id="e6rWz-Rmy9RiweGdKCaX-21" value="vm-notifier-api&lt;br&gt;&lt;br&gt;&lt;br&gt;&lt;br&gt;&lt;br&gt;&lt;br&gt;" style="html=1;dashed=0;whitespace=wrap;fillColor=#2875E2;strokeColor=#ffffff;points=[[0.005,0.63,0],[0.1,0.2,0],[0.9,0.2,0],[0.5,0,0],[0.995,0.63,0],[0.72,0.99,0],[0.5,1,0],[0.28,0.99,0]];shape=mxgraph.kubernetes.icon;prIcon=api;flipH=0;flipV=0;" vertex="1" parent="1">
          <mxGeometry x="1336" y="371.5" width="50" height="60" as="geometry" />
        </mxCell>
        <mxCell id="e6rWz-Rmy9RiweGdKCaX-33" value="9" style="rounded=1;whiteSpace=wrap;html=1;fillColor=#007CBD;strokeColor=none;fontColor=#FFFFFF;fontStyle=1;fontSize=22;labelBackgroundColor=none;" vertex="1" parent="1">
          <mxGeometry x="2402.5" y="540" width="40" height="38" as="geometry" />
        </mxCell>
        <mxCell id="e6rWz-Rmy9RiweGdKCaX-34" value="&lt;b&gt;vm-stock-api&amp;nbsp;&lt;/b&gt;&lt;b&gt;-&amp;nbsp;&lt;/b&gt;Visual Mix API. It the bridges between client(app) and an external stock from ERP." style="text;html=1;align=left;verticalAlign=top;spacingTop=-4;fontSize=14;labelBackgroundColor=none;whiteSpace=wrap;" vertex="1" parent="1">
          <mxGeometry x="2453" y="541.5" width="449" height="38.5" as="geometry" />
        </mxCell>
        <mxCell id="e6rWz-Rmy9RiweGdKCaX-35" value="10" style="rounded=1;whiteSpace=wrap;html=1;fillColor=#007CBD;strokeColor=none;fontColor=#FFFFFF;fontStyle=1;fontSize=22;labelBackgroundColor=none;" vertex="1" parent="1">
          <mxGeometry x="2402.5" y="590" width="40" height="38" as="geometry" />
        </mxCell>
        <mxCell id="e6rWz-Rmy9RiweGdKCaX-36" value="&lt;b&gt;vm-chat-api&amp;nbsp;&lt;/b&gt;&lt;b&gt;-&amp;nbsp;&lt;/b&gt;Visual Mix API. It&#39;s responsible for chat between customer and retail company" style="text;html=1;align=left;verticalAlign=top;spacingTop=-4;fontSize=14;labelBackgroundColor=none;whiteSpace=wrap;" vertex="1" parent="1">
          <mxGeometry x="2453" y="591.5" width="449" height="38.5" as="geometry" />
        </mxCell>
        <mxCell id="e6rWz-Rmy9RiweGdKCaX-37" value="11" style="rounded=1;whiteSpace=wrap;html=1;fillColor=#007CBD;strokeColor=none;fontColor=#FFFFFF;fontStyle=1;fontSize=22;labelBackgroundColor=none;" vertex="1" parent="1">
          <mxGeometry x="2404" y="640" width="40" height="38" as="geometry" />
        </mxCell>
        <mxCell id="e6rWz-Rmy9RiweGdKCaX-38" value="&lt;b&gt;vm-notifier-api&amp;nbsp;&lt;/b&gt;&lt;b&gt;-&amp;nbsp;&lt;/b&gt;Visual Mix API. It&#39;s responsible for send all e-mail messages" style="text;html=1;align=left;verticalAlign=top;spacingTop=-4;fontSize=14;labelBackgroundColor=none;whiteSpace=wrap;" vertex="1" parent="1">
          <mxGeometry x="2454.5" y="641.5" width="449" height="38.5" as="geometry" />
        </mxCell>
        <mxCell id="e6rWz-Rmy9RiweGdKCaX-39" value="12" style="rounded=1;whiteSpace=wrap;html=1;fillColor=#007CBD;strokeColor=none;fontColor=#FFFFFF;fontStyle=1;fontSize=22;labelBackgroundColor=none;" vertex="1" parent="1">
          <mxGeometry x="2404" y="690" width="40" height="38" as="geometry" />
        </mxCell>
        <mxCell id="e6rWz-Rmy9RiweGdKCaX-40" value="&lt;b&gt;vm-messenger-ws&amp;nbsp;&lt;/b&gt;&lt;b&gt;-&amp;nbsp;&lt;/b&gt;Visual Mix API. It&#39;s responsible for all websockets requests" style="text;html=1;align=left;verticalAlign=top;spacingTop=-4;fontSize=14;labelBackgroundColor=none;whiteSpace=wrap;" vertex="1" parent="1">
          <mxGeometry x="2454.5" y="691.5" width="449" height="38.5" as="geometry" />
        </mxCell>
      </root>
    </mxGraphModel>
  </diagram>
</mxfile>
